<svg width="700" height="700" viewBox="0 0 700 700" fill="none" xmlns="http://www.w3.org/2000/svg">
<path d="M310.981 118.628C310.981 118.628 291.241 111.755 271.483 175.265C251.723 238.774 222.523 299.706 255.133 320.314C287.744 340.922 348.686 334.932 364.998 320.345C381.31 305.757 373.594 270.565 362.448 228.505C351.302 186.445 331.58 114.341 310.981 118.628Z" fill="#7AD0A5"/>
<path d="M309.012 119.283L310.062 439.05C310.062 439.05 316.617 443.642 320.552 440.363C316.642 357.742 316.394 133.937 309.012 119.283Z" fill="#51B78C"/>
<path d="M243.228 263.952L312.067 300.037L243.228 263.952Z" fill="#51B78C"/>
<path d="M311.111 301.862L242.27 265.779L244.184 262.126L313.025 298.211L311.111 301.862Z" fill="#51B78C"/>
<path d="M365.198 240.38L312.075 270.529L365.198 240.38Z" fill="#51B78C"/>
<path d="M313.093 272.321L311.059 268.736L364.182 238.588L366.216 242.172L313.093 272.321Z" fill="#51B78C"/>
<path d="M258.979 208.876L310.12 231.185L258.979 208.876Z" fill="#51B78C"/>
<path d="M309.295 233.075L258.156 210.766L259.804 206.986L310.944 229.296L309.295 233.075Z" fill="#51B78C"/>
<path d="M312.094 206.924L350.787 187.263L312.094 206.924Z" fill="#51B78C"/>
<path d="M313.027 208.761L311.16 205.086L349.854 185.424L351.721 189.101L313.027 208.761Z" fill="#51B78C"/>
<path d="M309.48 176.76L277.354 160.357L309.48 176.76Z" fill="#51B78C"/>
<path d="M308.542 178.595L276.416 162.193L278.291 158.522L310.416 174.924L308.542 178.595Z" fill="#51B78C"/>
<path d="M285.883 141.344L292.433 166.919L285.883 141.344Z" fill="#51B78C"/>
<path d="M290.436 167.43L283.886 141.855L287.881 140.832L294.43 166.408L290.436 167.43Z" fill="#51B78C"/>
<path d="M311.451 158.4C313.419 157.088 335.717 147.259 335.717 147.259L311.451 158.4Z" fill="#51B78C"/>
<path d="M312.593 160.115L310.309 156.684C312.322 155.343 331.135 147.027 334.886 145.373L336.547 149.146C327.998 152.915 313.935 159.225 312.593 160.115Z" fill="#51B78C"/>
<path d="M323.256 153.814L340.302 160.376L323.256 153.814Z" fill="#51B78C"/>
<path d="M339.563 162.299L322.515 155.736L323.996 151.889L341.044 158.452L339.563 162.299Z" fill="#51B78C"/>
<path d="M357.991 218.084L336.343 254.142L357.991 218.084Z" fill="#51B78C"/>
<path d="M338.108 255.203L334.575 253.081L356.224 217.022L359.758 219.145L338.108 255.203Z" fill="#51B78C"/>
<path d="M251.759 235.102L279.943 281.667L251.759 235.102Z" fill="#51B78C"/>
<path d="M278.179 282.734L249.995 236.17L253.523 234.035L281.705 280.601L278.179 282.734Z" fill="#51B78C"/>
<path d="M313.375 317.741L374.366 286.938L313.375 317.741Z" fill="#51B78C"/>
<path d="M314.304 319.581L312.444 315.902L373.436 285.099L375.295 288.779L314.304 319.581Z" fill="#51B78C"/>
<path d="M183.98 90.4147C183.98 90.4147 157.839 81.3148 131.673 165.418C105.506 249.522 66.8391 330.212 110.024 357.503C153.208 384.794 233.911 376.86 255.513 357.543C277.115 338.226 266.897 291.621 252.136 235.922C237.376 180.223 211.26 84.7391 183.98 90.4147Z" fill="#51B78C"/>
<path d="M181.374 91.2828L182.764 514.741C182.764 514.741 191.446 520.821 196.657 516.481C191.477 407.067 191.149 110.69 181.374 91.2828Z" fill="#4D9E7E"/>
<path d="M184.463 332.476L93.2991 284.69L95.2132 281.039L186.378 328.824L184.463 332.476Z" fill="#4D9E7E"/>
<path d="M186.448 293.367L184.414 289.782L254.761 249.857L256.795 253.442L186.448 293.367Z" fill="#4D9E7E"/>
<path d="M182.017 241.361L114.293 211.819L115.941 208.039L183.665 237.581L182.017 241.361Z" fill="#4D9E7E"/>
<path d="M186.388 209.181L184.52 205.505L235.761 179.469L237.628 183.145L186.388 209.181Z" fill="#4D9E7E"/>
<path d="M181.055 169.233L138.511 147.512L140.386 143.84L182.928 165.563L181.055 169.233Z" fill="#4D9E7E"/>
<path d="M157.42 154.878L148.747 121.009L152.742 119.986L161.416 153.854L157.42 154.878Z" fill="#4D9E7E"/>
<path d="M185.746 144.801L183.46 141.369C186.137 139.586 212.866 127.785 215.905 126.445L217.568 130.217C206.216 135.222 187.537 143.606 185.746 144.801Z" fill="#4D9E7E"/>
<path d="M222.071 147.623L199.496 138.935L200.977 135.087L223.551 143.777L222.071 147.623Z" fill="#4D9E7E"/>
<path d="M217.344 274.134L213.812 272.009L244.468 221.06L248.002 223.185L217.344 274.134Z" fill="#4D9E7E"/>
<path d="M141.114 307.391L103.791 245.727L107.319 243.593L144.641 305.256L141.114 307.391Z" fill="#4D9E7E"/>
<path d="M188.08 355.936L186.221 352.257L266.988 311.465L268.848 315.146L188.08 355.936Z" fill="#4D9E7E"/>
<path d="M156.233 231.371L125.604 178.433L129.171 176.368L159.8 229.306L156.233 231.371Z" fill="#4D9E7E"/>
<path d="M235.01 509.03C235.01 509.03 123.162 504.885 123.162 542.493C123.162 580.103 177.485 620.497 276.381 634.425C375.277 648.355 478.352 652.533 532.675 630.246C586.999 607.96 623.214 566.173 582.819 550.851C542.426 535.529 584.213 518.815 584.213 518.815L235.01 509.03Z" fill="#A2D5F3"/>
<path d="M341.335 506.738C341.335 506.738 339.49 462.165 367.36 422.244C395.228 382.32 442.589 377.692 462.083 400.912C481.578 424.131 488.998 455.707 492.703 485.423C499.216 442.709 509.432 432.498 520.576 432.501C531.719 432.503 546.573 451.08 545.632 492.867C554.001 447.367 572.573 449.229 578.14 467.804C583.706 486.377 581.844 503.091 581.844 503.091C581.844 503.091 585.564 481.734 595.778 483.595C605.993 485.454 606.913 514.242 606.911 521.669C606.909 529.099 340.403 521.597 340.403 521.597L341.335 506.738Z" fill="#51B78C"/>
<path d="M237.338 483.496C227.128 473.277 209.482 481.631 200.187 509.485C193.969 468.993 172.075 457.237 157.49 495.005C154.325 489.408 149.388 485.015 141.693 484.396C118.478 482.532 111.967 523.39 111.967 523.39L163.04 522.476L241.97 522.497C241.97 522.497 247.551 493.713 237.338 483.496Z" fill="#7AD0A5"/>
<path d="M436.988 484.48C426.776 474.261 409.13 482.614 399.836 510.469C393.701 470.522 372.309 458.535 357.729 494.481C354.556 489.164 349.698 485.048 342.271 484.452C319.056 482.588 312.544 523.446 312.544 523.446L349.822 522.778C349.777 523.006 349.733 523.226 349.688 523.456L441.62 523.481C441.62 523.481 447.199 494.697 436.988 484.48Z" fill="#5B9BD9"/>
<path d="M478.878 109.336L586.597 109.365C586.597 109.365 580.1 97.2929 559.67 99.1437C561.532 84.2869 555.031 83.356 544.818 79.639C534.604 75.922 523.456 96.348 523.456 96.348C516.958 84.2744 510.46 83.3434 504.886 87.0562C499.314 90.769 495.599 96.3396 495.599 96.3396C490.028 88.9098 474.24 95.4058 478.878 109.336Z" fill="#5B9BD9"/>
<path d="M262.391 90.2384L353.522 90.2636C353.522 90.2636 348.026 80.0492 330.743 81.6144C332.317 69.0466 326.819 68.2584 318.177 65.114C309.536 61.9682 300.104 79.2498 300.104 79.2498C294.608 69.0354 289.108 68.2486 284.393 71.3902C279.679 74.5304 276.535 79.2428 276.535 79.2428C271.823 72.9568 258.465 78.4532 262.391 90.2384Z" fill="#5B9BD9"/>
<path d="M373.883 339.909L367.85 329.384L365.218 333.407C365.218 333.407 368.004 334.335 369.239 343.932C370.475 353.528 371.092 357.242 367.997 358.17C364.902 359.097 360.262 348.881 358.715 343.62C357.169 338.356 357.169 338.356 357.169 338.356L353.452 345.166C353.71 345.552 353.975 347.019 354.732 349.213C353.322 353.263 349.588 363.465 346.633 377.975C344.55 388.206 344.145 417.903 343.524 432.761C342.899 447.619 346.303 457.524 342.588 454.738C338.874 451.951 330.831 437.71 330.831 437.71L328.661 447.304C328.661 447.304 332.063 458.759 339.182 459.999C346.301 461.238 349.395 461.24 349.09 449.788C348.783 438.334 349.098 418.524 349.098 418.524C349.098 418.524 347.865 402.119 350.655 384.786C352.73 371.899 356 360.387 357.542 355.326C358.709 357.342 360.231 359.554 362.27 361.883C369.851 370.552 372.946 367.767 374.188 359.1C375.428 350.434 373.883 339.909 373.883 339.909Z" fill="#CB2624"/>
<path d="M418.977 134.855C418.977 134.855 395.76 140.421 389.724 145.527C383.685 150.633 380.432 165.025 377.178 181.738C373.923 198.453 365.088 244.416 363.693 251.843C362.298 259.273 350.676 313.592 350.21 317.307C346.028 330.77 349.737 349.808 353.45 353.524C354.845 346.559 356.24 341.452 356.24 341.452C360.416 347.953 362.736 352.134 363.665 349.348C364.595 346.562 363.205 338.668 363.205 338.668C369.242 335.884 369.243 331.241 367.85 329.384C366.457 327.526 363.672 322.419 363.672 322.419C380.398 288.064 384.58 274.137 389.225 265.78C393.872 257.424 404.097 215.176 404.097 215.176L398.506 285.748L486.259 287.63L489.992 219.843L502.655 245.351C502.655 245.351 514.104 329.424 515.032 335.924C515.957 345.211 512.705 351.246 513.169 353.102C513.633 354.96 519.672 347.533 519.672 347.533C525.241 354.035 525.241 354.035 525.241 354.035C525.241 354.035 519.667 362.391 522.452 363.321C525.239 364.249 527.562 357.286 527.562 357.286C527.562 357.286 526.631 367.5 529.416 367.037C532.202 366.573 533.597 355.894 533.599 353.573C533.599 351.252 529.424 341.036 529.424 341.036C529.424 341.036 534.223 260.21 532.37 245.351C524.951 209.135 512.757 166.454 508.116 158.096C503.476 149.737 472.836 134.407 472.836 134.407C472.836 134.407 454.73 130.222 444.051 130.22C433.371 130.217 418.977 134.855 418.977 134.855Z" fill="#F89F89"/>
<path d="M489.991 220.667C489.549 220.667 489.184 220.318 489.168 219.874L488.246 195.265C488.229 194.81 488.584 194.428 489.038 194.411C489.479 194.404 489.878 194.748 489.892 195.203L490.816 219.811C490.832 220.266 490.476 220.65 490.022 220.667C490.011 220.667 490.001 220.667 489.991 220.667Z" fill="#272626"/>
<path d="M408.778 83.3153C408.313 84.7083 412.485 106.067 419.912 112.105C427.34 118.143 434.767 117.218 439.414 111.646C444.058 106.077 445.452 96.7903 445.452 96.7903C445.452 96.7903 453.347 97.2566 453.813 89.3634C454.279 81.4716 446.386 79.6123 443.6 82.8603C438.497 70.3233 438.497 70.3234 438.497 70.3234L408.778 83.3153Z" fill="#F89F89"/>
<path d="M447.546 81.4688C447.546 81.4688 447.78 76.8264 444.531 71.7178C440.121 70.7882 439.656 74.27 439.656 74.27L443.6 82.8604C443.6 82.8604 445.921 80.5406 447.546 81.4688Z" fill="#272626"/>
<path d="M428.037 113.499L433.836 130.217C417.353 134.39 410.619 136.942 410.619 136.942C410.85 143.443 408.985 169.443 424.074 175.018C439.162 180.594 458.171 179.582 465.165 169.459C471.901 159.711 480.497 138.355 480.497 138.355C480.497 138.355 467.961 131.387 458.445 128.831C447.308 100.274 445.452 96.7904 445.452 96.7904L428.037 113.499Z" fill="#F89F89"/>
<path d="M428.242 117.123C427.955 117.123 427.78 117.111 427.741 117.109C427.287 117.074 426.947 116.677 426.982 116.222C427.017 115.769 427.414 115.426 427.867 115.464C427.941 115.468 433.642 115.815 438.855 111.038C444.037 106.292 443.717 101.247 443.701 101.034C443.667 100.582 444.006 100.185 444.458 100.148C444.905 100.113 445.308 100.447 445.344 100.899C445.365 101.144 445.775 106.936 439.97 112.255C435.07 116.743 429.863 117.123 428.242 117.123Z" fill="#272626"/>
<path d="M435.922 137.785C435.569 137.785 435.243 137.558 435.134 137.204L428.875 116.995C428.739 116.56 428.982 116.098 429.416 115.963C429.853 115.828 430.314 116.073 430.45 116.508L436.709 136.716C436.843 137.151 436.6 137.613 436.166 137.747C436.085 137.773 436.002 137.785 435.922 137.785Z" fill="#272626"/>
<path d="M445.424 93.5199C444.976 93.5199 444.542 93.3869 444.163 93.1223C443.79 92.8619 443.698 92.3481 443.958 91.9743C444.218 91.6005 444.734 91.5081 445.106 91.7699C445.32 91.9197 445.582 91.9057 445.886 91.7279C446.415 91.4143 446.783 90.7493 446.726 90.2117C446.598 88.9965 445.543 88.0109 444.379 87.0253C444.146 86.8279 444.041 86.5143 444.108 86.2147C444.175 85.9151 444.403 85.6785 444.7 85.6001L447.563 84.8385C448.004 84.7195 448.455 84.9841 448.573 85.4237C448.689 85.8647 448.427 86.3169 447.986 86.4317L446.591 86.8041C447.496 87.7085 448.23 88.7375 448.365 90.0381C448.493 91.2225 447.818 92.5007 446.724 93.1475C446.303 93.3953 445.857 93.5199 445.424 93.5199Z" fill="#272626"/>
<path d="M405.534 81.4659C405.534 81.4659 401.344 68.4683 414.806 62.4231C428.266 56.3779 436.626 60.0866 440.807 63.798C444.989 67.5094 446.383 71.2235 446.852 76.7941C420.014 81.6031 407.638 86.2581 407.638 86.2581L405.534 81.4659Z" fill="#F0374A"/>
<path d="M382.325 93.0901L446.852 76.7941C446.852 76.7941 444.065 74.4743 437.1 74.4799C430.136 74.4855 405.534 81.4659 405.534 81.4659C405.534 81.4659 382.322 87.5181 382.325 93.0901Z" fill="#5B9BD9"/>
<path d="M446.767 384.192C446.767 384.192 448.62 396.264 448.619 400.445C451.851 464.519 453.93 498.645 462.035 573.632C460.793 583.227 461.412 589.107 461.412 589.107C461.412 589.107 481.992 604.745 494.061 609.857C494.068 587.105 481.072 571.78 481.072 571.78C492.236 494.477 496.203 420.423 497.137 401.85C498.071 383.279 497.147 368.421 497.147 368.421C497.147 368.421 455.125 378.16 446.767 384.192Z" fill="#F89F89"/>
<path d="M461.105 578.274C461.105 578.274 465.437 585.085 470.389 586.943C470.389 586.943 480.06 575.623 487.796 580.577C492.905 592.65 496.693 609.547 495.454 612.023C481.527 606.448 461.227 596.022 459.864 591.584C458.626 587.56 461.105 578.274 461.105 578.274Z" fill="#272626"/>
<path d="M387.797 392.998L385.932 420.857C385.932 420.857 404.477 520.918 421.876 563.406C412.584 585.225 413.28 589.404 413.28 589.404C429.068 580.587 439.285 569.446 439.285 569.446C438.834 523.481 440.709 461.033 434.454 415.065C436.78 397.19 437.247 389.298 437.247 389.298L387.797 392.998Z" fill="#F89F89"/>
<path d="M417.463 568.975C417.463 568.975 419.321 567.43 425.821 569.598C432.32 571.767 440.371 560.317 440.371 560.317L439.285 569.446C439.285 569.446 428.292 584.146 413.28 589.404C414.365 577.643 417.463 568.975 417.463 568.975Z" fill="#272626"/>
<path d="M390.611 288.996C390.611 288.996 381.766 378.139 383.618 393.925C407.758 402.29 439.799 394.87 439.799 394.87C439.799 394.87 443.517 376.067 442.59 373.048C442.18 371.717 443.514 392.085 443.514 392.085C450.481 382.337 493.199 376.313 498.768 380.493C498.316 338.241 492.757 294.132 492.757 294.132L390.611 288.996Z" fill="#F0374A"/>
<path d="M442.816 392.91C442.368 392.91 442.001 392.55 441.993 392.101C441.766 380.162 441.321 323.711 441.315 323.142C441.312 322.687 441.678 322.315 442.133 322.311C442.135 322.311 442.137 322.311 442.14 322.311C442.592 322.311 442.961 322.676 442.964 323.13C442.97 323.698 443.415 380.141 443.64 392.069C443.65 392.524 443.288 392.9 442.833 392.91C442.827 392.91 442.821 392.91 442.816 392.91Z" fill="#272626"/>
<path d="M442.833 338.586C442.784 338.586 442.735 338.582 442.684 338.573C442.236 338.491 441.939 338.062 442.022 337.614C442.079 337.295 443.523 329.673 450.485 317.845C450.715 317.453 451.219 317.323 451.613 317.554C452.005 317.785 452.137 318.289 451.906 318.682C445.109 330.228 443.657 337.834 443.643 337.911C443.572 338.307 443.225 338.586 442.833 338.586Z" fill="#272626"/>
<path d="M401.674 138.982L410.609 136.091C410.609 136.091 409.685 155.747 415.717 167.819C421.751 179.893 450.072 180.83 458.433 173.404C466.791 165.977 477.015 134.408 477.015 134.408L487.228 140.447C487.228 140.447 480.253 179.446 480.711 202.661C481.169 225.876 491.847 228.665 491.847 228.665C491.847 228.665 497.633 292.972 497.165 302.257C470.231 322.911 393.393 306.408 382.252 299.44C394.334 262.3 404.564 205.426 404.564 205.426L401.674 138.982Z" fill="#5B9BD9"/>
<path d="M367.829 404.6C367.829 404.6 351.116 402.273 344.151 400.415C331.612 408.769 331.612 408.769 331.612 408.769C331.612 408.769 339.041 412.485 344.147 412.951C349.254 413.417 365.042 409.707 367.829 404.6Z" fill="#272626"/>
<path d="M236.887 439.386L227.604 428.705C229.463 421.74 239.684 398.528 239.684 398.528C254.545 384.604 258.726 379.498 258.726 379.498C244.334 373.457 231.795 382.276 224.364 389.703C216.933 397.128 208.575 404.555 212.282 426.378C202.069 420.805 199.283 422.197 201.604 426.84C203.924 431.483 209.957 440.307 209.957 440.307C200.673 434.734 197.424 432.411 200.672 438.911C203.92 445.413 213.202 461.202 231.774 456.099C238.279 444.03 236.887 439.386 236.887 439.386Z" fill="#BF4F1F"/>
<path d="M324.629 479.34C324.629 479.34 326.941 511.843 322.759 526.235C320.893 555.95 319.493 582.877 319.493 582.877C319.493 582.877 327.849 582.417 325.524 596.344C312.061 593.09 312.061 593.09 312.061 593.09C304.179 548.979 300.478 505.799 300.478 505.799L324.629 479.34Z" fill="#D59330"/>
<path d="M260.54 534.575C260.54 534.575 263.32 551.291 262.854 558.719C262.388 566.147 260.994 570.325 260.994 570.325L260.527 575.897C260.527 575.897 273.063 580.543 274.456 577.759C275.85 574.973 271.211 559.649 271.211 559.649C271.68 542.471 271.218 536.899 271.218 536.899L260.54 534.575Z" fill="#D59330"/>
<path d="M297.724 388.794C297.724 388.794 313.978 374.87 320.944 370.23C327.909 365.588 331.624 368.374 334.873 371.162C338.122 373.948 338.122 373.948 338.122 373.948C338.122 373.948 352.517 367.451 357.161 364.668C361.805 361.883 361.805 361.883 361.805 361.883C361.805 361.883 366.912 366.992 368.301 377.671C369.691 388.35 359.01 392.525 356.224 395.776C353.438 399.025 337.649 405.521 336.256 408.306C344.611 413.879 359.47 409.241 365.043 405.527C370.615 402.279 369.686 407.387 369.686 407.387C369.686 407.387 361.791 415.276 352.503 419.919C343.216 424.558 340.894 423.164 340.894 423.164L332.532 441.735C332.532 441.735 328.343 478.414 326.021 483.055C323.698 487.698 299.547 513.692 296.295 518.335C294.903 515.547 294.903 515.547 294.903 515.547C290.723 522.976 283.293 524.831 278.186 524.364C273.078 523.898 241.507 521.569 235.01 509.03C228.514 496.493 227.128 467.242 225.736 463.063C229.457 443.099 245.248 424.995 246.641 422.674C248.035 420.353 267.54 407.358 282.397 411.54L297.724 388.794Z" fill="#DFA842"/>
<path d="M230.371 495.1C230.371 495.1 233.152 514.602 239.183 526.676C244.754 533.177 244.754 533.177 244.754 533.177C247.066 562.894 247.066 562.894 247.066 562.894C247.066 562.894 255.419 585.182 257.274 588.897C267.025 588.9 267.954 585.651 267.954 585.651C267.954 585.651 267.492 574.972 260.994 570.325C256.819 557.325 256.82 555.003 256.82 555.003C263.326 530.86 266.113 528.076 265.187 521.576C264.258 515.074 254.513 500.679 252.193 496.035C249.873 491.392 243.377 473.283 242.451 464.925C241.525 456.567 226.666 459.348 227.592 469.564C228.518 479.779 230.371 495.1 230.371 495.1Z" fill="#DFA842"/>
<path d="M298.158 496.978C298.158 496.978 280.043 519.722 278.186 524.364C287.463 556.868 293.028 576.372 293.028 576.372C293.028 576.372 290.24 587.514 287.917 590.298C285.596 593.083 279.56 591.689 276.774 588.438C273.99 585.187 277.243 575.438 280.958 574.975C270.75 551.293 255.434 529.001 255.434 529.001C251.723 516.001 261.02 474.68 261.02 474.68C261.02 474.68 273.56 464.933 287.022 470.973C300.485 477.012 300.947 487.227 298.158 496.978Z" fill="#DFA842"/>
<path d="M333.087 378.125C333.087 379.704 331.807 380.983 330.228 380.983C328.649 380.982 327.369 379.702 327.37 378.123C327.37 376.545 328.65 375.266 330.229 375.266C331.808 375.266 333.087 376.547 333.087 378.125Z" fill="#272626"/>
<path d="M343.685 408.309C343.685 408.309 344.145 420.379 347.393 427.809C350.641 435.239 354.82 432.454 357.143 429.67C359.465 426.884 361.789 418.529 361.326 414.348C360.863 410.171 360.399 404.597 360.399 404.597L352.043 408.31C346.935 406.452 343.685 408.309 343.685 408.309Z" fill="#F0374A"/>
<path d="M352.502 420.743C352.061 420.743 351.697 420.395 351.679 419.951L351.218 408.342C351.2 407.889 351.554 407.505 352.009 407.487C352.481 407.47 352.849 407.823 352.867 408.278L353.326 419.885C353.345 420.34 352.99 420.724 352.535 420.742C352.524 420.743 352.514 420.743 352.502 420.743Z" fill="#272626"/>
<path d="M357.161 364.668C357.161 364.668 362.267 369.775 367.375 369.778C362.27 361.883 362.27 361.883 362.27 361.883L357.161 364.668Z" fill="#272626"/>
<path d="M249.421 449.037C249.347 449.037 249.271 449.026 249.197 449.005C248.759 448.881 248.504 448.427 248.626 447.989C248.8 447.373 252.948 432.842 259.987 425.81C260.049 425.747 260.121 425.695 260.201 425.655C267.695 421.911 282.253 409.542 284.924 404.648C285.142 404.247 285.643 404.1 286.044 404.317C286.443 404.536 286.59 405.037 286.371 405.437C283.549 410.606 268.95 423.074 261.059 427.069C254.379 433.842 250.256 448.288 250.215 448.435C250.111 448.799 249.781 449.037 249.421 449.037Z" fill="#272626"/>
<path d="M282.825 540.358C282.471 540.358 282.145 540.13 282.037 539.774L277.397 524.605C277.325 524.364 277.365 524.103 277.509 523.894C277.642 523.704 290.826 504.703 291.435 503.791C291.687 503.412 292.198 503.31 292.579 503.563C292.957 503.815 293.059 504.328 292.807 504.707C292.228 505.575 280.911 521.885 279.091 524.507L283.613 539.291C283.746 539.728 283.501 540.189 283.066 540.322C282.986 540.345 282.905 540.358 282.825 540.358Z" fill="#272626"/>
<path d="M273.224 560.475C272.938 560.475 272.661 560.326 272.509 560.058C272.388 559.85 260.408 538.951 257.352 533.753C257.043 533.225 256.756 532.756 256.488 532.321C253.992 528.24 253.32 527.142 254.461 514.073C255.692 499.962 259.396 478.621 259.433 478.407C259.512 477.96 259.934 477.662 260.387 477.737C260.835 477.814 261.136 478.243 261.058 478.691C261.02 478.905 257.33 500.177 256.105 514.216C255.011 526.744 255.566 527.65 257.895 531.461C258.167 531.902 258.458 532.382 258.775 532.918C261.835 538.124 273.819 559.03 273.939 559.24C274.166 559.636 274.029 560.138 273.633 560.365C273.504 560.44 273.364 560.475 273.224 560.475Z" fill="#272626"/>
<path d="M276.774 589.263C276.608 589.263 276.438 589.212 276.293 589.106C275.923 588.84 275.841 588.325 276.107 587.955C276.126 587.928 278.067 585.228 278.944 582.887C279.105 582.46 279.579 582.246 280.007 582.404C280.433 582.563 280.648 583.04 280.489 583.467C279.531 586.016 277.529 588.803 277.444 588.921C277.283 589.143 277.031 589.263 276.774 589.263Z" fill="#272626"/>
<path d="M280.335 591.43C280.235 591.43 280.132 591.413 280.034 591.373C279.609 591.206 279.401 590.73 279.567 590.306L282.355 583.187C282.52 582.763 283 582.554 283.422 582.719C283.847 582.886 284.056 583.363 283.889 583.787L281.102 590.906C280.974 591.231 280.664 591.43 280.335 591.43Z" fill="#272626"/>
<path d="M284.047 592.361C283.958 592.361 283.865 592.345 283.774 592.313C283.346 592.162 283.119 591.692 283.27 591.262C284.295 588.335 285.37 584.969 285.393 584.412C285.41 583.968 285.776 583.607 286.217 583.607C286.223 583.607 286.229 583.607 286.234 583.607C286.682 583.615 287.042 583.968 287.042 584.417C287.041 585.408 285.345 590.325 284.826 591.808C284.707 592.147 284.388 592.361 284.047 592.361Z" fill="#272626"/>
<path d="M318.096 595.155C317.939 595.155 317.779 595.109 317.639 595.017C317.26 594.763 317.158 594.251 317.411 593.873C319.897 590.146 317.186 586.846 317.158 586.814C316.865 586.465 316.91 585.946 317.258 585.652C317.607 585.358 318.126 585.403 318.42 585.752C319.652 587.217 321.314 590.992 318.783 594.787C318.625 595.027 318.363 595.155 318.096 595.155Z" fill="#272626"/>
<path d="M322.119 596.085C321.987 596.085 321.854 596.053 321.731 595.987C321.329 595.773 321.178 595.275 321.392 594.873C323.603 590.731 321.22 586.888 321.118 586.727C320.874 586.345 320.988 585.834 321.37 585.59C321.752 585.345 322.26 585.456 322.505 585.837C322.631 586.032 325.521 590.636 322.847 595.648C322.699 595.925 322.414 596.085 322.119 596.085Z" fill="#272626"/>
<path d="M308.526 505.387C308.329 505.387 308.132 505.317 307.975 505.176C307.636 504.869 307.608 504.349 307.913 504.011C313.655 497.634 324.825 484.578 326.008 480.796C326.144 480.362 326.602 480.119 327.041 480.256C327.475 480.393 327.718 480.855 327.58 481.291C325.997 486.356 309.826 504.35 309.138 505.114C308.976 505.295 308.75 505.387 308.526 505.387Z" fill="#272626"/>
<path d="M256.214 504.136C255.888 504.136 255.578 503.94 255.45 503.616C255.43 503.572 253.56 498.914 249.908 491.606C246.197 484.175 243.76 473.904 243.657 473.47C243.554 473.028 243.828 472.584 244.272 472.48C244.707 472.378 245.158 472.65 245.263 473.094C245.287 473.197 247.758 483.613 251.384 490.868C255.069 498.243 256.962 502.958 256.981 503.005C257.149 503.427 256.943 503.908 256.521 504.077C256.42 504.116 256.318 504.136 256.214 504.136Z" fill="#272626"/>
<path d="M260.834 588.948C260.436 588.948 260.088 588.662 260.021 588.259C259.452 584.845 258.047 583.093 258.033 583.078C257.746 582.725 257.796 582.207 258.146 581.918C258.496 581.628 259.013 581.676 259.302 582.025C259.372 582.107 261.001 584.098 261.647 587.989C261.722 588.438 261.419 588.862 260.97 588.937C260.924 588.945 260.879 588.948 260.834 588.948Z" fill="#272626"/>
<path d="M265.478 588.64C265.439 588.64 265.399 588.637 265.36 588.631C264.909 588.567 264.596 588.15 264.66 587.698C265.217 583.818 262.755 581.304 262.73 581.28C262.408 580.957 262.408 580.436 262.73 580.114C263.052 579.79 263.574 579.79 263.896 580.114C264.022 580.238 266.965 583.244 266.294 587.931C266.235 588.343 265.881 588.64 265.478 588.64Z" fill="#272626"/>
<path d="M266.407 579.663C266.029 579.663 265.688 579.403 265.604 579.018C264.814 575.466 262.038 570.951 260.201 567.962C258.856 565.775 258.468 565.123 258.468 564.598C258.468 564.143 258.838 563.775 259.294 563.775C259.721 563.775 260.071 564.099 260.114 564.517C260.224 564.851 260.957 566.044 261.604 567.098C263.5 570.18 266.365 574.837 267.214 578.66C267.312 579.106 267.032 579.545 266.588 579.645C266.528 579.657 266.468 579.663 266.407 579.663Z" fill="#272626"/>
<path d="M328.979 429.262C322.235 429.262 318.014 424.529 317.832 424.32C317.533 423.977 317.568 423.458 317.909 423.158C318.249 422.857 318.772 422.892 319.073 423.234C319.115 423.28 323.246 427.889 329.559 427.601C335.95 427.311 340.241 422.659 340.284 422.611C340.589 422.274 341.111 422.248 341.449 422.555C341.785 422.86 341.811 423.381 341.505 423.72C341.313 423.931 336.704 428.926 329.633 429.248C329.413 429.258 329.195 429.262 328.979 429.262Z" fill="#272626"/>
<path d="M297.724 388.794C297.724 388.794 295.863 403.652 301.897 410.154C307.931 416.655 311.644 421.299 311.178 425.942C310.713 430.585 303.283 436.618 299.104 435.688C294.925 434.759 283.784 429.649 280.536 418.04C277.29 406.433 291.687 391.114 297.724 388.794Z" fill="#BF4F1F"/>
<path d="M274.966 413.861C274.966 413.861 277.284 427.791 287.032 436.149C296.779 444.51 305.137 446.834 309.316 447.763C313.494 448.693 332.532 441.735 332.532 441.735L332.529 451.949C332.529 451.949 327.884 458.912 307.92 456.585C287.956 454.258 284.707 446.828 278.209 439.398C271.712 431.967 267.536 419.43 267.536 419.43L274.966 413.861Z" fill="#F0374A"/>
</svg>
