<svg width="667" height="667" viewBox="0 0 667 667" fill="none" xmlns="http://www.w3.org/2000/svg">
<path d="M180.309 508.06C153.521 511.735 127.418 520.027 104.835 535.269C102.115 537.107 99.4 539.071 97.4631 541.72C95.0068 545.081 93.9869 549.34 94.0104 553.504C94.0792 565.903 103.014 576.908 113.892 582.857C124.77 588.808 137.376 590.603 149.697 591.986C254.899 603.789 361.444 592.674 465.659 574.069C498.132 568.272 530.883 561.616 560.589 547.276C575.157 540.245 586.433 526.843 569.723 515.391C554.659 505.067 528.563 506.721 511.096 505.529C467.383 502.543 423.535 503.381 379.756 503.757C320.273 504.265 260.679 502.929 201.252 506.092C194.257 506.464 187.26 507.107 180.309 508.06Z" fill="#A2D5F3"/>
<path d="M566.281 252.579C566.281 294.844 532.017 329.105 489.753 329.105C447.489 329.105 413.228 294.844 413.228 252.579C413.228 210.315 447.489 176.053 489.753 176.053C532.017 176.053 566.281 210.315 566.281 252.579Z" fill="#D3B314"/>
<path d="M565.784 234.983C564.92 234.453 563.789 234.723 563.26 235.585C563.181 235.712 555.329 248.5 547.668 261.391C532.463 286.968 532.088 289.027 532.423 290.172C528.521 292.667 524.671 295.128 520.967 297.492C520.015 297.163 518.973 297.659 518.636 298.611C518.585 298.752 518.56 298.896 518.545 299.039C508.165 305.661 499.225 311.341 494.121 314.535C493.876 303.012 493.603 291.685 493.299 280.784L531.479 250.008C532.193 249.935 532.783 249.456 533.008 248.773L560.872 226.312C561.661 225.676 561.785 224.521 561.149 223.733C560.513 222.944 559.359 222.821 558.569 223.456L533.645 243.548L538.952 194.471C539.061 193.463 538.332 192.559 537.325 192.451C536.325 192.339 535.412 193.069 535.304 194.076L529.604 246.807L493.169 276.177C492.445 251.183 491.556 228.664 490.464 211.508L521.503 186.967C522.296 186.339 522.432 185.184 521.804 184.389C521.175 183.596 520.021 183.461 519.228 184.089L490.169 207.064C489.036 190.787 487.696 180.191 486.111 178.24V225.029L441.884 197.813C441.021 197.281 439.892 197.551 439.36 198.413C438.831 199.276 439.099 200.407 439.961 200.937L486.111 229.336V262.809L419.211 226.189C418.321 225.704 417.207 226.029 416.721 226.919C416.233 227.807 416.561 228.921 417.449 229.408L443.228 243.519L412.8 250.795C411.816 251.031 411.208 252.02 411.444 253.007C411.644 253.849 412.396 254.415 413.227 254.415C413.367 254.415 413.511 254.399 413.655 254.364L447.18 246.347C447.425 246.288 447.645 246.183 447.837 246.043L486.111 266.992V306.02C466.819 300.857 426.387 290.016 424.74 289.467C423.78 289.148 422.74 289.667 422.42 290.628C422.1 291.588 422.619 292.628 423.58 292.948C424.559 293.273 436.856 296.599 450.5 300.268L437.327 305.539C436.385 305.913 435.928 306.983 436.304 307.923C436.591 308.64 437.28 309.076 438.008 309.076C438.235 309.076 438.465 309.033 438.688 308.944L456.408 301.856C468.727 305.165 480.972 308.443 486.111 309.819V509.855H496.313C496.313 509.855 496.084 409.239 494.212 318.796C499.231 315.688 509.899 308.911 521.433 301.549L542.344 308.971C542.548 309.043 542.755 309.076 542.957 309.076C543.713 309.076 544.42 308.607 544.687 307.855C545.025 306.9 544.527 305.851 543.571 305.512L525.352 299.047C542.351 288.189 560.041 276.833 563.627 274.531C564.48 273.983 564.728 272.848 564.18 271.996C563.632 271.143 562.499 270.896 561.645 271.443C554.181 276.236 545.685 281.684 537.209 287.108C541.539 278.541 556.549 253.519 566.387 237.505C566.916 236.643 566.647 235.513 565.784 234.983Z" fill="#BB9D57"/>
<path d="M473.129 194.647C473.129 245.992 431.507 287.615 380.163 287.615C328.816 287.615 287.193 245.992 287.193 194.647C287.193 143.301 328.816 101.679 380.163 101.679C431.507 101.679 473.129 143.301 473.129 194.647Z" fill="#EEB20D"/>
<path d="M472.32 173.604C471.456 173.073 470.328 173.345 469.796 174.208C469.701 174.363 460.164 189.895 450.856 205.552C431.613 237.927 432.029 239.176 432.432 240.383C432.444 240.416 432.467 240.441 432.479 240.473C427.687 243.54 422.84 246.637 418.131 249.644L417.963 249.584C417.008 249.248 415.959 249.745 415.62 250.7C415.549 250.901 415.523 251.107 415.521 251.308C403.041 259.272 391.797 266.42 385.479 270.373C385.173 256.041 384.833 241.957 384.455 228.416L430.671 191.161C431.488 191.145 432.172 190.575 432.377 189.785L466.313 162.429C467.101 161.793 467.227 160.639 466.589 159.849C465.952 159.06 464.797 158.937 464.009 159.573L432.989 184.579L439.537 124.011C439.647 123.004 438.917 122.099 437.911 121.991C436.911 121.88 436 122.609 435.891 123.616L428.948 187.837L384.324 223.809C383.436 193.016 382.34 165.287 380.996 144.272L418.487 114.628C419.283 113.999 419.416 112.845 418.788 112.051C418.16 111.256 417.007 111.121 416.212 111.749L380.7 139.828C379.316 119.785 377.676 106.724 375.735 104.335V161.639L348.388 144.809C348.669 144.329 348.735 143.731 348.505 143.177L336.699 114.844C336.309 113.909 335.235 113.467 334.3 113.856C333.365 114.245 332.923 115.32 333.313 116.256L344.116 142.181L321.801 128.449C320.937 127.917 319.808 128.187 319.277 129.049C318.747 129.913 319.015 131.043 319.877 131.573L375.735 165.948V207.523L294.272 162.933C293.384 162.448 292.268 162.773 291.783 163.661C291.296 164.551 291.621 165.665 292.511 166.152L333.175 188.411L288.297 205.924C287.353 206.292 286.887 207.356 287.256 208.3C287.537 209.024 288.231 209.468 288.965 209.468C289.187 209.468 289.412 209.428 289.631 209.341L337.376 190.711L375.735 211.707V259.977C348.639 252.727 303.013 240.487 301.055 239.833C300.093 239.513 299.055 240.032 298.735 240.993C298.413 241.955 298.933 242.993 299.895 243.315C302.295 244.115 361.307 259.913 375.735 263.775V507.199H388.131C388.131 507.199 387.851 384.625 385.568 274.633C391.755 270.796 404.683 262.58 418.595 253.701L444.183 262.781C444.387 262.853 444.593 262.888 444.797 262.888C445.552 262.888 446.259 262.419 446.525 261.667C446.864 260.712 446.365 259.663 445.411 259.324L422.513 251.199C444.647 237.064 467.885 222.144 469.695 220.983C470.547 220.435 470.793 219.3 470.247 218.447C469.699 217.595 468.564 217.348 467.712 217.895C460.244 222.689 448.904 229.961 436.84 237.684C441.145 228.637 460.427 196.471 472.923 176.128C473.452 175.265 473.183 174.135 472.32 173.604Z" fill="#BB9D57"/>
<path d="M153.201 515.167H353.777C353.777 515.167 395.863 464.004 386.828 444.456C377.791 424.908 355.433 433.189 347.981 447.267C349.036 438.975 350.185 430.649 350.631 422.296C350.948 416.385 351.593 409.533 346.193 405.653C343.605 403.792 340.391 402.961 337.209 402.767C333.391 402.531 329.076 402.631 325.664 404.484C315.985 409.737 310.561 421.993 306.513 431.649C302.484 441.26 298.695 451.756 297.469 462.171C297.153 459.079 296.799 455.989 296.396 452.905C294.392 437.611 291.301 403.039 269.137 403.552C266.457 403.613 263.757 403.964 261.255 404.92C251.167 408.768 247.676 422.665 246.957 432.361C234.536 390.957 222.536 368.528 186.307 369.392C150.075 370.257 162.496 419.94 171.604 438.985C138.483 398.411 92.6139 381.237 114.242 436.659C133.131 485.063 142.576 493.325 153.201 515.167Z" fill="#BB9D57"/>
<path d="M183.116 373.752L181.132 374.447L227.98 515.167H230.195L183.116 373.752Z" fill="#E9CE9A"/>
<path d="M274.149 515.167C274.915 488.816 276.964 416.153 276.383 414.36L274.393 415.041C274.385 415.016 274.373 414.983 274.367 414.935C274.772 417.676 272.899 485.921 272.052 515.167H274.149Z" fill="#E9CE9A"/>
<path d="M305.68 515.167C311.48 497.793 340.253 411.527 341.336 407.084L339.301 406.561C338.239 410.927 308.541 499.955 303.464 515.167H305.68Z" fill="#E9CE9A"/>
<path d="M378.479 442.549L376.533 441.749C375.508 444.276 351.644 489.976 336.495 515.167H338.905C347.9 499.504 377.391 445.341 378.479 442.549Z" fill="#E9CE9A"/>
<path d="M187.364 515.167L115.093 412.253L113.392 413.512L184.779 515.167H187.364Z" fill="#E9CE9A"/>
<path d="M267.169 329.456C267.169 329.456 275.428 354.233 276.929 390.649C278.541 429.733 276.561 523.539 276 532.036C291.712 533.716 299.079 539.688 299.079 539.688C266.043 545.319 256.283 544.943 256.283 544.943C238.637 452.216 236.039 417.06 234.884 412.423C228.431 386.535 211.608 335.837 211.608 335.837L267.169 329.456Z" fill="#F79274"/>
<path d="M254.349 538.929C254.349 538.929 255.507 539.419 263.265 539.669C275.428 540.063 279.995 532.572 279.995 532.572C279.995 532.572 294.949 533.681 301.332 540.815C301.332 540.815 264.836 547.633 254.761 546.874C254.571 543.104 254.349 538.929 254.349 538.929Z" fill="#181511"/>
<path d="M234.912 334.761C234.912 334.761 235.381 353.336 235.404 388.932C235.424 420.989 234.383 423.685 222.869 435.699C208.088 451.123 135.851 498.489 135.851 498.489C137.339 510.999 136.525 525.797 136.525 525.797C136.525 525.797 122.33 509.557 116.809 489.999C129.629 476.355 140.24 462.748 156.445 442.816C174.481 420.631 181.064 410.469 181.064 410.469C181.256 397.236 180.735 380.372 177.076 342.568L198.196 336.9L234.912 334.761Z" fill="#F79274"/>
<path d="M232.632 423.735C232.583 423.735 232.532 423.729 232.481 423.72C232.047 423.637 231.763 423.217 231.845 422.784C234.044 411.237 234.423 407.141 234.861 402.397C235.023 400.647 235.195 398.791 235.465 396.439C237.335 380.2 236.897 340.021 236.893 339.617C236.888 339.176 237.241 338.815 237.684 338.809C238.163 338.76 238.487 339.157 238.493 339.6C238.497 340.004 238.936 380.283 237.055 396.621C236.785 398.96 236.616 400.804 236.455 402.545C236.012 407.328 235.631 411.461 233.417 423.084C233.344 423.467 233.008 423.735 232.632 423.735Z" fill="#181511"/>
<path d="M137.12 504.373C137.12 504.373 131.067 506.937 125.769 500.768C120.471 494.601 118.651 486.496 118.651 486.496L113.013 492.497C113.013 492.497 118.571 501.851 122.009 506.772C127.257 514.285 136.053 526.363 136.053 526.363C136.053 526.363 140.868 518.255 137.12 504.373Z" fill="#181511"/>
<path d="M521.535 396.388C521.469 396.388 521.404 396.383 521.339 396.371C491.368 390.7 464.248 382.471 440.733 371.911C421.9 363.453 405.321 353.489 391.456 342.293C367.779 323.175 360.331 307.312 360.025 306.647C359.784 306.12 360.015 305.499 360.54 305.257C361.065 305.015 361.688 305.245 361.931 305.771C361.949 305.812 363.823 309.833 368.557 316.129C372.928 321.941 380.701 330.935 392.908 340.771C406.635 351.832 423.056 361.684 441.713 370.052C465.049 380.519 491.969 388.68 521.728 394.311C522.296 394.419 522.671 394.967 522.563 395.536C522.467 396.039 522.028 396.388 521.535 396.388Z" fill="#181511"/>
<path d="M273.927 202.941C273.927 202.941 293.093 236.963 302.833 250.244C308.012 257.305 307.508 255.903 317.475 269.015C323.081 276.393 324.983 279.151 328.909 282.649C329.741 283.389 330.333 284.391 331.264 285.004C334.037 286.829 336.608 286.953 339.013 289.42C339.996 290.427 343.063 292.833 343.417 294.256C343.423 294.276 345.181 301.344 340.319 304.437C335.449 307.537 335.007 305.323 335.007 305.323L339.433 298.24L335.892 295.141C335.892 295.141 332.349 307.095 327.48 307.537C322.611 307.98 320.397 303.995 319.953 299.568C288.521 279.204 268.157 265.923 257.975 248.656C247.792 231.391 244.251 217.225 244.251 217.225L273.927 202.941Z" fill="#F79274"/>
<path d="M368.209 309.751C364.668 304.88 338.548 289.385 338.548 289.385C345.631 294.699 343.417 298.683 343.417 298.683L346.959 300.011C346.959 300.011 340.319 305.767 338.991 313.735C338.74 315.235 338.711 316.701 338.825 318.097C337.805 317.691 331.907 315.2 331.907 311.964C331.907 308.423 339.433 298.24 339.433 298.24L335.892 295.141L327.48 307.537C327.48 307.537 323.939 309.751 328.808 315.948C333.677 322.147 342.532 328.787 342.532 328.787C342.532 328.787 348.729 335.428 353.157 335.871C357.584 336.313 361.568 329.672 361.568 329.672C361.568 329.672 371.751 314.62 368.209 309.751Z" fill="#F0374A"/>
<path d="M328.016 301.348C327.379 302.973 327.293 305.061 328.584 306.237C329.365 306.949 330.467 307.16 331.508 307.343C333.767 307.736 336.249 308.089 338.223 306.92C340.228 305.732 341.103 303.332 341.833 301.119C341.925 300.836 342.017 300.519 341.885 300.252C341.796 300.073 341.623 299.955 341.456 299.844C336.284 296.395 331.131 293.479 328.016 301.348Z" fill="#F79274"/>
<path d="M280.755 251.616C280.64 251.616 280.524 251.591 280.415 251.539C280.023 251.351 279.857 250.88 280.045 250.489C283.657 242.964 292.977 237.949 293.372 237.74C293.756 237.536 294.231 237.681 294.435 238.064C294.639 238.448 294.493 238.924 294.109 239.128C294.017 239.177 284.849 244.116 281.463 251.169C281.328 251.451 281.047 251.616 280.755 251.616Z" fill="#181511"/>
<path d="M341.527 300.3C341.507 300.3 341.487 300.3 341.465 300.299C340.06 300.265 338.916 299.369 338.081 298.715L332.453 294.305C332.112 294.037 332.051 293.544 332.319 293.201C332.588 292.86 333.081 292.8 333.423 293.068L339.052 297.477C339.908 298.149 340.685 298.707 341.505 298.727C341.86 298.751 342.309 298.517 342.539 298.205C342.671 298.025 342.711 297.856 342.659 297.701C342.52 297.289 342.741 296.844 343.153 296.705C343.564 296.568 344.009 296.787 344.149 297.2C344.365 297.841 344.239 298.548 343.804 299.139C343.281 299.849 342.393 300.3 341.527 300.3Z" fill="#181511"/>
<path d="M332.583 308.808C332.089 308.808 331.593 308.769 331.105 308.691C329.869 308.495 328.881 308.064 328.171 307.412C326.241 305.641 326.523 302.632 327.659 300.435C328.957 297.92 331.228 295.924 333.889 294.96C334.296 294.812 334.748 295.023 334.896 295.431C335.044 295.839 334.833 296.289 334.425 296.437C332.132 297.269 330.175 298.989 329.055 301.156C328.223 302.768 327.924 305.051 329.233 306.253C329.713 306.692 330.425 306.991 331.353 307.139C333.88 307.543 336.579 306.673 338.396 304.869C338.704 304.564 339.201 304.565 339.508 304.873C339.813 305.183 339.812 305.68 339.504 305.985C337.689 307.788 335.136 308.808 332.583 308.808Z" fill="#181511"/>
<path d="M333.824 306.419C333.787 306.419 333.749 306.416 333.712 306.411C331.247 306.057 328.865 305.115 326.825 303.685C326.471 303.435 326.384 302.945 326.633 302.589C326.883 302.235 327.372 302.148 327.729 302.397C329.567 303.687 331.712 304.536 333.935 304.853C334.364 304.916 334.663 305.313 334.601 305.743C334.545 306.135 334.209 306.419 333.824 306.419Z" fill="#181511"/>
<path d="M335.731 303.803C335.696 303.803 335.66 303.8 335.624 303.797C335.127 303.748 334.729 303.365 334.632 302.844C332.473 302.317 330.373 301.556 328.376 300.575C327.985 300.383 327.825 299.912 328.016 299.523C328.208 299.132 328.68 298.972 329.068 299.163C331.309 300.263 333.684 301.072 336.127 301.568C336.244 301.591 336.355 301.641 336.451 301.715C336.847 302.02 336.983 302.557 336.785 303.052C336.604 303.512 336.188 303.803 335.731 303.803Z" fill="#181511"/>
<path d="M337.944 301.168H337.949H337.944ZM338.447 301.625C338.081 301.625 337.744 301.413 337.607 301.089C337.587 301.044 337.572 300.997 337.561 300.951L331.729 297.636C331.352 297.421 331.22 296.941 331.435 296.564C331.648 296.187 332.129 296.053 332.507 296.269L338.711 299.795C339.409 300.192 339.345 300.771 339.311 300.939C339.231 301.309 338.92 301.584 338.537 301.62C338.508 301.624 338.477 301.625 338.447 301.625Z" fill="#181511"/>
<path d="M319.987 300.807C319.912 300.807 319.835 300.796 319.759 300.773C319.343 300.648 319.108 300.209 319.233 299.795C320.339 296.136 322.6 292.821 325.603 290.46C325.944 290.189 326.437 290.249 326.707 290.591C326.976 290.933 326.916 291.427 326.575 291.695C323.824 293.86 321.751 296.897 320.739 300.248C320.636 300.588 320.324 300.807 319.987 300.807Z" fill="#181511"/>
<path d="M328.648 298.077C327.432 298.077 326.223 297.795 325.155 297.195C324.776 296.983 324.641 296.504 324.853 296.125C325.065 295.747 325.545 295.612 325.924 295.823C328.443 297.236 331.967 296.425 333.617 294.053C333.864 293.697 334.353 293.608 334.711 293.856C335.067 294.104 335.156 294.595 334.908 294.951C333.515 296.952 331.071 298.077 328.648 298.077Z" fill="#181511"/>
<path d="M256.837 279.648C256.837 279.648 265.668 311.812 270.924 339.593C251.115 342.171 238.637 344.66 238.637 344.66L238.451 339.404L171.064 349.103C171.064 349.103 165.057 311.812 163.555 289.287C194.275 284.18 256.837 279.648 256.837 279.648Z" fill="#A2D5F3"/>
<path d="M197.217 346.601C196.836 346.601 196.5 346.321 196.441 345.933C196.376 345.503 196.671 345.101 197.1 345.037L246.94 337.119L240.68 298.763C240.611 298.333 240.901 297.929 241.329 297.86C241.759 297.788 242.163 298.08 242.232 298.509L248.62 337.649C248.653 337.856 248.603 338.068 248.48 338.239C248.356 338.408 248.171 338.521 247.963 338.553L238.339 340.017C238.297 340.023 197.257 346.601 197.217 346.601Z" fill="#181511"/>
<path d="M243.652 313.857C243.471 313.857 243.288 313.796 243.141 313.669C242.812 313.387 242.773 312.889 243.056 312.56C250.724 303.613 250.881 297.284 250.881 297.221C250.887 296.791 251.237 296.443 251.668 296.443C251.671 296.443 251.672 296.443 251.675 296.443C252.107 296.445 252.456 296.796 252.455 297.229C252.453 297.508 252.339 304.147 244.249 313.584C244.093 313.765 243.873 313.857 243.652 313.857Z" fill="#181511"/>
<path d="M256.833 227.62L279.115 204.383C279.115 204.383 276.583 200.727 264.439 186.195C255.532 175.537 249.655 169.421 248.593 168.4C245.325 164.556 241.524 161.027 237.136 158.268C231.035 154.433 217.615 149.633 198.761 149.048C158.553 147.799 148.785 169.405 148.785 169.405C148.021 163.727 157.92 252.496 162.604 298.547C233.801 288.036 259.564 290.039 259.564 290.039C259.564 290.039 256.753 252.496 256.753 230.723C256.753 229.68 256.785 228.647 256.833 227.62Z" fill="#F0374A"/>
<path d="M256.864 251.769C256.509 251.705 256.235 251.404 256.219 251.029L255.117 224.739C255.112 224.612 255.136 224.488 255.188 224.375L259.612 214.827C263.34 206.779 259.965 202.916 256.059 198.445C255.571 197.885 255.076 197.32 254.591 196.74C250.029 191.297 249.496 179.243 249.476 178.732C249.459 178.297 249.796 177.933 250.231 177.915C250.664 177.899 251.029 178.235 251.047 178.669C251.052 178.789 251.58 190.699 255.796 195.731C256.275 196.301 256.761 196.859 257.243 197.411C261.332 202.091 265.196 206.513 261.039 215.487L256.696 224.863L257.789 250.963C257.808 251.397 257.471 251.763 257.037 251.781C256.979 251.784 256.92 251.78 256.864 251.769Z" fill="#181511"/>
<path d="M228.316 125.121L215.469 150.111L226.424 153.651C226.424 153.651 237.887 168.155 225.373 174.911C216.196 179.867 182.06 172.985 180.824 150.133C182.959 149.796 191.085 148.883 191.085 148.883L206.056 119.027L228.316 125.121Z" fill="#F79274"/>
<path d="M189.347 95.1987C189.347 95.1987 180.807 86.6441 170.483 88.1267C160.159 89.6081 147.235 114.863 147.235 114.863L153.799 120.212L165.881 103.077L155.535 122.493C155.535 122.493 157.616 123.773 165.709 127.128C173.803 130.483 173.803 130.483 173.803 130.483C173.803 130.483 171.843 125.6 176.408 114.001C180.973 102.4 187.685 101.633 187.685 101.633L189.347 95.1987Z" fill="#181511"/>
<path d="M187.055 94.7935C186.537 95.6268 186.297 96.6201 186.117 97.5908C185.713 99.7615 185.565 102.087 186.388 103.948C187.211 105.809 189.264 106.981 191.067 106.043C190.999 104.032 191.18 101.977 191.604 99.9641C191.877 98.6614 193.264 96.0641 192.988 94.8081C192.405 92.1521 188.415 92.6001 187.055 94.7935Z" fill="#F0374A"/>
<path d="M236.813 99.8108C236.813 99.8108 238.503 114.411 233.696 125.087C228.889 135.763 222.185 135.691 213.997 133.424C205.808 131.159 202.408 119.892 202.408 119.892C202.408 119.892 197.968 119.761 195.257 114.62C192.547 109.48 197.905 103.083 204.373 108.516C206.597 96.3881 215.021 92.2881 222.804 93.2935C230.588 94.2975 234.681 95.4308 236.813 99.8108Z" fill="#F79274"/>
<path d="M215.228 96.5641C215.228 96.5641 208.527 111.912 207.171 113.407C206.369 109.493 203.335 107.977 203.335 107.977C203.335 107.977 198.952 105.955 197.005 107.935C194.343 110.639 194.671 114.699 196.907 117.152C199.143 119.607 206.032 119.439 206.032 119.439L201.48 127.864C201.48 127.864 192.473 124.312 190.161 113.141C187.849 101.971 191.093 88.5134 203.899 82.2801C216.703 76.0481 229.651 79.9574 234.797 84.5374C239.945 89.1174 238.603 97.0641 238.603 97.0641C238.603 97.0641 241.64 111.008 235.771 119.075C237.391 108.7 236.459 101.651 236.459 101.651C228.391 103.911 221.048 100.816 221.048 100.816L225.939 98.0188C225.939 98.0188 218.82 97.5241 215.228 96.5641Z" fill="#181511"/>
<path d="M221.339 135.333C216.192 135.851 212.729 134.507 210.611 133.128C207.749 131.265 206.656 128.963 206.612 128.865C206.447 128.512 206.6 128.092 206.953 127.928C207.308 127.764 207.727 127.916 207.891 128.269C208.049 128.605 211.928 136.469 224.804 133.293C225.18 133.199 225.564 133.429 225.659 133.809C225.752 134.187 225.521 134.569 225.143 134.663C223.784 134.999 222.516 135.215 221.339 135.333Z" fill="#181511"/>
<path d="M204.975 117.111C203.897 117.109 202.885 116.493 202.269 115.461C201.653 114.431 201.589 113.248 202.099 112.299C202.137 112.227 202.18 112.153 202.223 112.08C202.299 111.949 202.425 111.731 202.425 111.655C202.416 111.652 202.339 111.58 201.993 111.451C201.548 111.284 201.043 111.096 200.624 111.155C200.341 111.193 200.097 111.416 200.104 111.564C200.123 111.953 199.821 112.284 199.432 112.303C199.041 112.324 198.713 112.019 198.695 111.631C198.647 110.612 199.54 109.879 200.432 109.756C201.204 109.649 201.915 109.915 202.487 110.128C202.836 110.259 203.563 110.529 203.781 111.264C203.967 111.889 203.664 112.409 203.444 112.788C203.409 112.848 203.375 112.908 203.343 112.967C203.075 113.467 203.127 114.145 203.481 114.737C203.836 115.329 204.408 115.697 204.976 115.699C205.365 115.699 205.681 116.015 205.68 116.405C205.68 116.795 205.364 117.111 204.975 117.111Z" fill="#181511"/>
<path d="M212.912 158.036C212.813 158.036 212.712 158.016 212.616 157.971C212.261 157.807 212.109 157.387 212.273 157.033L222.608 134.773C222.772 134.42 223.192 134.267 223.545 134.431C223.899 134.595 224.052 135.015 223.888 135.368L213.553 157.628C213.433 157.884 213.179 158.036 212.912 158.036Z" fill="#181511"/>
<path d="M139.723 215.407C139.723 215.407 134.067 247.712 133.147 269.015C132.226 290.319 156.991 337 166.687 346.803C165.625 353.491 174.384 350.927 174.384 350.927C174.189 357.136 173.411 359.825 175.604 359.295C177.799 358.765 178.347 350.324 178.347 350.324C180.807 356.429 180.081 360.445 182.257 359.472C184.433 358.499 184.523 349.635 184.523 349.635C187.884 356.147 187.584 359.703 189.3 358.304C191.016 356.907 187.46 345.529 187.46 345.529L193.051 352.395C193.051 352.395 194.573 346.131 185.389 338.08L179.48 334.328C179.48 334.328 166.933 285.908 166.933 273.52C166.933 264.509 177.005 217.017 177.005 217.017L139.723 215.407Z" fill="#F79274"/>
<path d="M153.195 275.724C150.684 275.724 147.984 275.471 145.237 274.803C144.815 274.7 144.557 274.275 144.66 273.853C144.763 273.432 145.185 273.171 145.609 273.275C156.145 275.835 166.28 271.873 166.381 271.833C166.784 271.671 167.241 271.868 167.403 272.271C167.564 272.675 167.368 273.131 166.965 273.293C166.641 273.423 160.773 275.724 153.195 275.724Z" fill="#181511"/>
<path d="M175.452 360.319C175.371 360.319 175.285 360.308 175.2 360.287C174.016 359.996 173.268 358.771 173.147 356.925C173.041 355.289 173.14 353.655 173.441 352.049C172.525 352.259 171.56 352.221 170.627 352.136C169.915 352.072 169.089 351.973 168.328 351.617C166.511 350.767 165.551 348.452 166.229 346.564C166.355 346.217 166.735 346.04 167.083 346.161C167.429 346.287 167.609 346.668 167.484 347.015C167.036 348.263 167.695 349.848 168.895 350.409C169.457 350.673 170.119 350.752 170.748 350.808C171.901 350.913 173.097 350.94 174.031 350.416C174.263 350.288 174.553 350.307 174.763 350.469C174.975 350.631 175.068 350.904 175.003 351.161C174.531 353.017 174.353 354.928 174.479 356.839C174.504 357.24 174.635 358.46 175.257 358.876C175.5 358.799 175.819 358.852 176.007 359.011C176.251 359.219 176.331 359.555 176.203 359.847C176.071 360.147 175.785 360.319 175.452 360.319Z" fill="#181511"/>
<path d="M182.344 359.409C182.021 359.409 181.692 359.331 181.393 359.171C180.424 358.652 180.08 357.525 179.875 356.852L178.048 350.879C177.94 350.527 178.139 350.155 178.491 350.045C178.841 349.937 179.216 350.139 179.323 350.489L181.149 356.461C181.347 357.107 181.576 357.756 182.024 357.996C182.244 358.113 182.529 358.103 182.672 357.968C182.945 357.719 183.365 357.739 183.615 358.009C183.863 358.281 183.844 358.704 183.573 358.952C183.244 359.253 182.8 359.409 182.344 359.409Z" fill="#181511"/>
<path d="M188.577 358.657C188.237 358.657 187.92 358.463 187.735 358.244C186.615 356.905 186.092 355.261 185.588 353.671C185.143 352.271 184.724 350.948 183.931 349.851C183.716 349.551 183.783 349.135 184.081 348.92C184.383 348.704 184.797 348.773 185.012 349.069C185.929 350.341 186.401 351.828 186.859 353.268C187.324 354.735 187.764 356.124 188.633 357.235C188.727 357.225 188.824 357.232 188.92 357.264C189.269 357.379 189.46 357.756 189.345 358.104C189.255 358.385 189.027 358.588 188.739 358.643C188.685 358.655 188.631 358.657 188.577 358.657Z" fill="#181511"/>
<path d="M193.351 353.583C193.156 353.583 192.892 353.512 192.647 353.212C190.795 350.979 188.967 348.667 187.215 346.348C186.992 346.053 187.051 345.636 187.344 345.413C187.637 345.193 188.056 345.249 188.279 345.544C189.948 347.755 191.688 349.957 193.453 352.097C193.513 352.101 193.572 352.115 193.627 352.136C193.888 352.237 194.104 352.581 194.099 352.861C194.092 353.173 193.9 353.439 193.608 353.54C193.564 353.556 193.471 353.583 193.351 353.583Z" fill="#181511"/>
<path d="M153.023 164.256C153.023 164.256 143.283 171.532 139.299 196.131C134.573 225.303 133.985 229.333 133.985 229.333L176.928 231.104C176.928 231.104 182.241 211.625 185.34 192.589C188.439 173.552 186.52 161.304 173.535 158.795C160.548 156.287 153.023 164.256 153.023 164.256Z" fill="#F0374A"/>
<path d="M177.58 231.244C177.575 231.244 177.569 231.244 177.564 231.244L146.693 230.645C146.252 230.636 145.901 230.273 145.911 229.833C145.92 229.395 146.275 229.041 146.724 229.053L176.924 229.639C177.687 225.687 178.488 222.517 178.947 219.836C181.245 206.396 181.883 208.213 184.109 192.383C184.171 191.948 184.491 191.599 184.931 191.611C185.371 191.624 185.773 191.996 185.704 192.431C183.28 207.833 182.511 208.744 180.636 220.212C180.173 223.041 179.183 226.344 178.364 230.599C178.291 230.975 177.961 231.244 177.58 231.244Z" fill="#181511"/>
<path fill-rule="evenodd" clip-rule="evenodd" d="M419.608 465.961L416.211 486.827L398.003 501.172L398.155 521.823L416.116 534.226C416.116 534.226 429.441 539.584 415.599 540.286C401.756 540.989 398.94 537.791 398.94 537.791L397.303 532.153L380.617 521.457L380.061 529.535C380.061 529.535 375.5 526.873 375.2 516.831C374.9 506.789 376.96 500.751 376.96 500.751L369.459 505.9C369.459 505.9 374.505 491.699 375.048 490.177C375.589 488.656 396.021 439.559 396.021 439.559L419.608 465.961Z" fill="#8F391C"/>
<path fill-rule="evenodd" clip-rule="evenodd" d="M540.415 477.057L549.033 503.441L571.816 527.953C571.816 527.953 590.911 529.521 584.295 537.174L566.981 536.479L535.941 514.515L531.503 519.879C531.503 519.879 530.319 514.867 532.143 510.255C533.965 505.641 524.479 514.729 524.479 514.729C524.479 514.729 523.637 514.048 525.817 506.747C525.817 506.747 508.909 500.663 506.633 485.823C504.357 470.984 540.415 477.057 540.415 477.057Z" fill="#8F391C"/>
<path fill-rule="evenodd" clip-rule="evenodd" d="M593.197 382.984L607.991 399.664L603.268 408.941L623.061 419.927L614.464 435.859C614.464 435.859 604.521 439.752 586.409 424.276C586.409 424.276 588.216 439.671 592.883 442.961C592.883 442.961 589.681 448.024 585.339 447.705C581.173 447.399 575.948 441.836 571.741 436.156L558.911 454.137L558.295 449.933L540.585 479.091L530.281 492.592L532.111 480.864L522.789 494.279L523.299 484.017L507.828 485.62L494.521 518.167L499.627 537.727C499.627 537.727 508.207 538.61 506.187 543.463L489.583 544.507C489.583 544.507 482.139 534.704 475.793 513.623L470.768 524.567C470.768 524.567 467.815 522.276 469.275 507.651L462.573 517.017C462.573 517.017 462.384 497.453 471.297 478.985C471.297 478.985 464.636 491.728 453.609 492.211C453.609 492.211 460.344 484.696 459.995 482.269C459.995 482.269 452.304 490.372 442.312 487.519L450.633 483.763C450.633 483.763 431.433 490.105 401.896 447.875L391.809 486.084L346.935 497.545L342.503 533.305C342.503 533.305 353.016 539.027 350.829 543.335L327.745 542.992C327.745 542.992 323.551 510.141 329.251 483.261L320.955 483.653L326.588 476.949L321.005 477.713L328.463 471.801C328.463 471.801 327.391 435.153 339.029 421.789C339.029 421.789 327.068 436.881 307.905 427.592C307.905 427.592 315.671 426.112 318.424 419.72C318.424 419.72 303.957 430.129 294.361 413.172C294.361 413.172 300.085 417.917 303.171 414.229C303.171 414.229 291.205 412.904 294.153 380.485C294.153 380.485 299.768 331.2 334.948 348.585C334.948 348.585 344.196 353.92 339.949 365.616C339.949 365.616 336.74 370.361 330.252 370.553C323.764 370.747 318.475 359.76 318.475 359.76L322.455 365.877L317.868 371.351L323.617 372.432L319.744 379.247L323.011 382.94L318.341 391.496L325.665 395.352L353.42 401.321L408.987 387.243L406.092 382.151L474.889 388.804L517.656 393.504L541.139 391.577L561.344 387.243L593.197 382.984Z" fill="#BF4F1F"/>
<path d="M375.565 490.887C375.213 490.887 374.893 490.648 374.804 490.289C374.699 489.868 374.956 489.441 375.379 489.337L391.168 485.433L401.135 447.673C401.245 447.253 401.676 447.003 402.096 447.113C402.515 447.224 402.767 447.656 402.656 448.075L392.568 486.284C392.496 486.561 392.277 486.777 391.999 486.847L375.756 490.864C375.692 490.879 375.628 490.887 375.565 490.887Z" fill="#181511"/>
<path d="M506.681 488.672C506.591 488.672 506.499 488.655 506.409 488.613C506.073 488.464 505.923 488.069 506.073 487.733C506.137 487.589 512.532 473.267 512.773 467.456C512.787 467.137 513.024 466.872 513.34 466.824C513.664 466.776 513.963 466.961 514.068 467.263C514.599 468.767 514.976 469.899 515.24 470.739C515.835 468.74 516.628 465.435 516.779 461.7C517.023 455.6 515.808 446.987 513.675 444.379C513.443 444.095 513.484 443.675 513.769 443.441C514.055 443.208 514.473 443.249 514.707 443.536C517.063 446.415 518.369 455.28 518.112 461.753C517.857 468.052 515.895 473.028 515.811 473.236C515.701 473.509 515.42 473.684 515.133 473.652C514.84 473.625 514.599 473.409 514.539 473.121C514.537 473.112 514.387 472.396 513.708 470.329C512.275 477.113 507.521 487.761 507.289 488.277C507.179 488.525 506.936 488.672 506.681 488.672Z" fill="#181511"/>
<path d="M508.107 486.441C507.704 486.441 507.361 486.135 507.325 485.725C507.285 485.293 507.607 484.911 508.039 484.873L523.301 483.517C523.735 483.476 524.116 483.797 524.155 484.231C524.192 484.663 523.873 485.045 523.441 485.084L508.177 486.439C508.153 486.44 508.129 486.441 508.107 486.441Z" fill="#181511"/>
<path fill-rule="evenodd" clip-rule="evenodd" d="M586.952 427.18C586.132 430.876 585.315 434.572 584.496 438.268C583.281 443.757 578.828 452.653 582.613 457.636C585.629 461.607 589.823 460.285 590.287 454.941C590.287 454.94 591.444 441.683 590.887 437.056C590.34 432.499 586.952 427.18 586.952 427.18Z" fill="#F0374A"/>
<path fill-rule="evenodd" clip-rule="evenodd" d="M577.765 388.749L554.485 424.936C554.485 424.936 566.999 435.448 582.179 421.859C587.387 417.199 590.529 408.292 588.773 392.651L583.943 387.992L577.765 388.749Z" fill="#8F391C"/>
<path d="M567.223 429.468C559.947 429.468 554.209 425.692 553.909 425.491C553.555 425.252 553.455 424.771 553.688 424.411L576.872 388.549C577.108 388.184 577.593 388.079 577.959 388.316C578.324 388.552 578.428 389.039 578.192 389.403L555.449 424.584C557.637 425.833 564.925 429.443 572.528 427.116C578.928 425.157 584.068 419.529 587.807 410.385C587.971 409.984 588.429 409.789 588.832 409.955C589.233 410.119 589.427 410.579 589.263 410.981C585.333 420.589 579.853 426.525 572.973 428.624C571.001 429.225 569.063 429.467 567.223 429.468Z" fill="#181511"/>
<path d="M597.427 404.733C596.269 404.733 595.328 405.689 595.328 406.865C595.328 408.043 596.269 408.999 597.427 408.999C598.584 408.999 599.527 408.043 599.527 406.865C599.527 405.689 598.584 404.733 597.427 404.733Z" fill="#181511"/>
<path fill-rule="evenodd" clip-rule="evenodd" d="M529.547 390.576C529.547 390.576 536.507 422.981 568.127 443.461L557.369 455.729C557.369 455.729 521.772 418.892 519.372 392.048L529.547 390.576Z" fill="#F0374A"/>
<path d="M557.643 456.556C557.451 456.556 557.257 456.487 557.107 456.345C534.991 435.699 522.839 406.625 522.717 406.335C522.552 405.933 522.743 405.473 523.144 405.308C523.545 405.143 524.007 405.333 524.172 405.735C524.289 406.023 536.32 434.788 558.179 455.196C558.497 455.492 558.513 455.989 558.217 456.307C558.063 456.473 557.852 456.556 557.643 456.556Z" fill="#181511"/>
</svg>
